<svg xmlns="http://www.w3.org/2000/svg" xmlns:xlink="http://www.w3.org/1999/xlink" width="500" zoomAndPan="magnify" viewBox="0 0 375 374.999991" height="500" preserveAspectRatio="xMidYMid meet" version="1.0"><path fill="#ffbf00" d="M 113.042969 314.191406 C 120.824219 308.53125 128.25 303.101562 135.695312 297.699219 C 152.578125 285.421875 169.464844 273.167969 186.328125 260.863281 C 187.84375 259.761719 188.9375 259.070312 190.878906 260.492188 C 214.804688 278.011719 238.820312 295.425781 262.800781 312.875 C 263.308594 313.234375 263.75 313.691406 264.273438 314.140625 C 223.828125 339.886719 162.148438 343.960938 113.042969 314.191406 " fill-opacity="1" fill-rule="nonzero"/><path fill="#ffbf00" d="M 90.242188 297.398438 C 47.496094 261.027344 31.917969 201.976562 43.636719 153.964844 C 44.410156 154.421875 45.144531 154.765625 45.796875 155.246094 C 69.546875 172.472656 93.277344 189.714844 117.058594 206.90625 C 118.574219 208 119.289062 208.894531 118.625 210.921875 C 109.3125 239.242188 100.09375 267.59375 90.835938 295.941406 C 90.683594 296.425781 90.449219 296.890625 90.242188 297.398438 " fill-opacity="1" fill-rule="nonzero"/><path fill="#ffbf00" d="M 333.949219 153.894531 C 345.425781 199.96875 331.46875 259.664062 287.308594 297.527344 C 284.507812 288.902344 281.757812 280.414062 278.992188 271.925781 C 272.402344 251.703125 265.824219 231.480469 259.183594 211.28125 C 258.605469 209.515625 258.492188 208.394531 260.257812 207.121094 C 284.402344 189.695312 308.496094 172.195312 332.597656 154.714844 C 332.949219 154.453125 333.339844 154.257812 333.949219 153.894531 " fill-opacity="1" fill-rule="nonzero"/><path fill="#ffbf00" d="M 52.5625 126.761719 C 73.3125 76.144531 125.613281 41.179688 174.472656 38.363281 C 174.203125 39.359375 174.015625 40.292969 173.722656 41.195312 C 164.742188 68.832031 155.730469 96.457031 146.8125 124.105469 C 146.183594 126.0625 145.449219 126.914062 143.246094 126.90625 C 113.65625 126.828125 84.074219 126.863281 54.484375 126.855469 C 53.941406 126.855469 53.398438 126.804688 52.5625 126.761719 " fill-opacity="1" fill-rule="nonzero"/><path fill="#ffbf00" d="M 203.085938 38.292969 C 255.320312 41.714844 305.902344 79.117188 325.046875 126.863281 C 323.859375 126.863281 322.800781 126.863281 321.738281 126.863281 C 292.917969 126.863281 264.101562 126.828125 235.289062 126.914062 C 232.730469 126.925781 231.488281 126.363281 230.636719 123.71875 C 221.8125 96.152344 212.824219 68.632812 203.890625 41.101562 C 203.628906 40.28125 203.421875 39.449219 203.085938 38.292969 " fill-opacity="1" fill-rule="nonzero"/><path fill="#ffbf00" d="M 188.585938 234.160156 C 173.902344 223.5 159.304688 212.945312 144.796875 202.25 C 143.984375 201.648438 143.375 199.769531 143.683594 198.804688 C 148.914062 182.285156 154.34375 165.835938 159.617188 149.34375 C 160.210938 147.507812 161.082031 146.984375 162.890625 146.992188 C 180.160156 147.042969 197.417969 147.054688 214.6875 146.976562 C 216.746094 146.96875 217.503906 147.734375 218.097656 149.59375 C 223.3125 165.878906 228.601562 182.148438 233.933594 198.390625 C 234.476562 200.046875 234.597656 201.148438 232.980469 202.320312 C 218.441406 212.78125 203.957031 223.328125 189.457031 233.839844 C 189.292969 233.960938 189.058594 233.996094 188.585938 234.160156 " fill-opacity="1" fill-rule="nonzero"/><path fill="#ffbf00" d="M 171.800781 246.695312 C 152.714844 260.578125 134 274.191406 115.28125 287.808594 C 115.085938 287.6875 114.894531 287.566406 114.707031 287.453125 C 121.875 265.429688 129.050781 243.40625 136.359375 220.96875 C 148.183594 229.550781 159.796875 237.984375 171.800781 246.695312 " fill-opacity="1" fill-rule="nonzero"/><path fill="#ffbf00" d="M 241.277344 220.949219 C 248.59375 243.40625 255.769531 265.429688 262.9375 287.453125 C 262.75 287.566406 262.550781 287.6875 262.363281 287.808594 C 243.648438 274.191406 224.929688 260.578125 205.863281 246.707031 C 217.710938 238.089844 229.28125 229.679688 241.277344 220.949219 " fill-opacity="1" fill-rule="nonzero"/><path fill="#ffbf00" d="M 189.214844 60.800781 C 196.332031 82.695312 203.449219 104.589844 210.636719 126.699219 C 195.988281 126.699219 181.648438 126.699219 167.007812 126.699219 C 174.203125 104.574219 181.320312 82.675781 188.4375 60.789062 C 188.6875 60.789062 188.957031 60.789062 189.214844 60.800781 " fill-opacity="1" fill-rule="nonzero"/><path fill="#ffbf00" d="M 308.867188 147.191406 C 289.382812 161.324219 270.746094 174.84375 251.796875 188.585938 C 247.257812 174.59375 242.835938 161.003906 238.347656 147.191406 C 261.777344 147.191406 284.800781 147.191406 308.867188 147.191406 " fill-opacity="1" fill-rule="nonzero"/><path fill="#ffbf00" d="M 125.847656 188.59375 C 106.785156 174.765625 88.21875 161.289062 69.046875 147.371094 C 92.769531 147.371094 115.808594 147.371094 139.238281 147.371094 C 134.808594 160.996094 130.398438 174.582031 125.847656 188.59375 " fill-opacity="1" fill-rule="nonzero"/><path fill="#ffbf00" d="M 187.5 355.777344 C 94.714844 355.777344 19.222656 280.285156 19.222656 187.5 C 19.222656 94.714844 94.714844 19.222656 187.5 19.222656 C 280.285156 19.222656 355.777344 94.714844 355.777344 187.5 C 355.777344 280.285156 280.285156 355.777344 187.5 355.777344 Z M 187.5 0 C 84.109375 0 0 84.117188 0 187.5 C 0 290.882812 84.109375 375 187.5 375 C 290.882812 375 375 290.882812 375 187.5 C 375 84.117188 290.882812 0 187.5 0 " fill-opacity="1" fill-rule="nonzero"/></svg>