<svg viewBox="0 0 48 48" xml:space="preserve" xmlns="http://www.w3.org/2000/svg" enable-background="new 0 0 48 48"><path d="M33.605 16.06c-.632.22-1.325.242-1.838.21l.12-.1c3.125-1.907 4.229-3.785 4.225-4.813-.001-.362-.14-.644-.39-.793-.81-.49-2.199.673-2.553 1-17.067 10.452-19.122 24.792-19.14 24.923-.007.045-.065.45.217.761.184.204.453.307.8.307.042 0 .084-.001.127-.004.488-.033.632-.549.87-1.403.541-1.935 1.662-5.946 7.433-10.287.47.053 1.903.095 4.206-.892 2.91-1.247 2.943-3.292 2.943-3.378a.351.351 0 0 0-.483-.324c-.692.284-1.33.166-1.762.006l.516-.26c1.414-.305 3.138-1.34 5.124-3.08l.124-.107c.346-.297.9-1.094.613-1.591-.184-.32-.57-.378-1.152-.175zM20.222 16.564a.35.35 0 1 0 0-.7h-5.159a3.178 3.178 0 0 0-3.175 3.175v5.189a.35.35 0 0 0 .7 0v-5.189a2.478 2.478 0 0 1 2.475-2.475h5.16zM34.005 26.725a.35.35 0 0 0-.35.35v5.16a2.478 2.478 0 0 1-2.476 2.475h-5.483a.35.35 0 1 0 0 .7h5.483a3.179 3.179 0 0 0 3.176-3.175v-5.16a.35.35 0 0 0-.35-.35z" fill="#ffa500" class="fill-303030"></path></svg>